<svg width="376" height="215" viewBox="0 0 376 215" fill="none" xmlns="http://www.w3.org/2000/svg">
<path fill-rule="evenodd" clip-rule="evenodd" d="M4.7481 124.022C0.711803 122.225 -1.10345 117.496 0.69363 113.46L49.0953 4.7481C50.8924 0.711803 55.6213 -1.10345 59.6575 0.69363C61.377 1.45916 62.6933 2.75672 63.4991 4.30612C63.8132 4.73079 64.0897 5.19302 64.3216 5.69031L114.613 113.541C116.48 117.545 114.748 122.305 110.744 124.172C106.739 126.04 101.979 124.307 100.112 120.303L86.6532 91.4398H53.4397C49.0215 91.4398 45.4397 87.858 45.4397 83.4398C45.4397 79.0215 49.0215 75.4398 53.4397 75.4398H79.1923L56.6545 27.1073L15.3104 119.968C13.5133 124.004 8.7844 125.819 4.7481 124.022Z" fill="#366213"/>
<path d="M3.84 194.924L23.28 152.924H31.32L50.64 194.924H42.36L30.12 168.464C29.8 167.744 29.46 166.964 29.1 166.124C28.74 165.284 28.38 164.444 28.02 163.604C27.7 162.764 27.38 161.924 27.06 161.084C26.74 160.204 26.46 159.364 26.22 158.564L28.08 158.504C27.8 159.384 27.5 160.264 27.18 161.144C26.86 162.024 26.52 162.884 26.16 163.724C25.8 164.564 25.44 165.404 25.08 166.244C24.72 167.044 24.36 167.844 24 168.644L11.82 194.924H3.84ZM12.54 185.744L15.36 178.964H38.7L40.32 185.744H12.54ZM62.2322 194.924V152.924H84.9722C87.7322 152.924 90.1722 153.504 92.2922 154.664C94.4122 155.784 96.0922 157.344 97.3322 159.344C98.6122 161.304 99.2522 163.544 99.2522 166.064C99.2522 168.624 98.5722 170.944 97.2122 173.024C95.8922 175.064 94.1122 176.704 91.8722 177.944C89.6322 179.144 87.1522 179.744 84.4322 179.744H69.8522V194.924H62.2322ZM92.0522 194.924L78.7922 175.964L87.0122 174.464L101.472 194.984L92.0522 194.924ZM69.8522 172.964H83.8922C85.2122 172.964 86.4322 172.664 87.5522 172.064C88.6722 171.464 89.5522 170.664 90.1922 169.664C90.8322 168.624 91.1522 167.484 91.1522 166.244C91.1522 165.044 90.8122 163.984 90.1322 163.064C89.4522 162.104 88.5122 161.344 87.3122 160.784C86.1522 160.224 84.8722 159.944 83.4722 159.944H69.8522V172.964ZM136.335 195.524C132.975 195.524 129.855 195.024 126.975 194.024C124.095 192.984 121.575 191.504 119.415 189.584C117.295 187.624 115.635 185.324 114.435 182.684C113.235 180.004 112.635 177.064 112.635 173.864C112.635 170.784 113.255 167.944 114.495 165.344C115.735 162.704 117.435 160.424 119.595 158.504C121.795 156.544 124.335 155.044 127.215 154.004C130.095 152.924 133.175 152.384 136.455 152.384C138.975 152.384 141.375 152.704 143.655 153.344C145.975 153.984 148.095 154.824 150.015 155.864C151.935 156.904 153.515 158.044 154.755 159.284L150.075 165.464C148.835 164.344 147.495 163.364 146.055 162.524C144.655 161.684 143.115 161.044 141.435 160.604C139.755 160.124 137.935 159.884 135.975 159.884C133.975 159.884 132.055 160.204 130.215 160.844C128.415 161.484 126.775 162.424 125.295 163.664C123.855 164.864 122.715 166.344 121.875 168.104C121.035 169.824 120.615 171.764 120.615 173.924C120.615 176.204 121.035 178.224 121.875 179.984C122.755 181.744 123.955 183.224 125.475 184.424C127.035 185.624 128.795 186.544 130.755 187.184C132.755 187.824 134.835 188.144 136.995 188.144C139.075 188.144 140.955 187.884 142.635 187.364C144.315 186.804 145.815 186.104 147.135 185.264C148.455 184.424 149.655 183.584 150.735 182.744L154.455 188.984C153.375 189.944 151.895 190.944 150.015 191.984C148.175 192.984 146.075 193.824 143.715 194.504C141.355 195.184 138.895 195.524 136.335 195.524ZM201.217 194.924V152.924H209.017V194.924H201.217ZM168.217 194.924V152.924H176.017V194.924H168.217ZM171.457 177.824L171.517 170.504H204.997V177.824H171.457ZM226.131 194.924V152.924H248.991C251.511 152.924 253.811 153.504 255.891 154.664C258.011 155.824 259.691 157.404 260.931 159.404C262.171 161.404 262.791 163.644 262.791 166.124C262.791 168.724 262.111 171.084 260.751 173.204C259.431 175.284 257.671 176.944 255.471 178.184C253.271 179.384 250.811 179.984 248.091 179.984H233.931V194.924H226.131ZM233.931 172.784H247.251C248.571 172.784 249.791 172.484 250.911 171.884C252.031 171.284 252.911 170.484 253.551 169.484C254.231 168.484 254.571 167.384 254.571 166.184C254.571 165.024 254.231 164.004 253.551 163.124C252.911 162.204 252.031 161.484 250.911 160.964C249.791 160.404 248.571 160.124 247.251 160.124H233.931V172.784ZM267.746 194.924L287.186 152.924H295.226L314.546 194.924H306.266L294.026 168.464C293.706 167.744 293.366 166.964 293.006 166.124C292.646 165.284 292.286 164.444 291.926 163.604C291.606 162.764 291.286 161.924 290.966 161.084C290.646 160.204 290.366 159.364 290.126 158.564L291.986 158.504C291.706 159.384 291.406 160.264 291.086 161.144C290.766 162.024 290.426 162.884 290.066 163.724C289.706 164.564 289.346 165.404 288.986 166.244C288.626 167.044 288.266 167.844 287.906 168.644L275.726 194.924H267.746ZM276.446 185.744L279.266 178.964H302.606L304.226 185.744H276.446ZM326.138 194.924V152.924H346.478C350.118 152.924 353.358 153.464 356.198 154.544C359.078 155.624 361.498 157.124 363.458 159.044C365.418 160.964 366.898 163.204 367.898 165.764C368.898 168.284 369.398 171.004 369.398 173.924C369.398 176.884 368.898 179.624 367.898 182.144C366.898 184.664 365.398 186.884 363.398 188.804C361.438 190.724 359.038 192.224 356.198 193.304C353.358 194.384 350.118 194.924 346.478 194.924H326.138ZM333.938 188.864L333.338 187.724H346.178C348.778 187.724 351.018 187.364 352.898 186.644C354.778 185.924 356.338 184.944 357.578 183.704C358.818 182.464 359.738 181.024 360.338 179.384C360.938 177.704 361.238 175.884 361.238 173.924C361.238 172.004 360.938 170.224 360.338 168.584C359.738 166.904 358.818 165.444 357.578 164.204C356.338 162.924 354.778 161.924 352.898 161.204C351.018 160.484 348.778 160.124 346.178 160.124H333.158L333.938 159.104V188.864Z" fill="#366213"/>
</svg>
