<svg width="128" height="128" viewBox="0 0 128 128" fill="none" xmlns="http://www.w3.org/2000/svg">
<circle cx="64" cy="64" r="64" fill="#F6FFF0"/>
<path fill-rule="evenodd" clip-rule="evenodd" d="M23.6488 102.307C20.547 100.926 19.152 97.2922 20.533 94.1904L57.7282 10.6488C59.1092 7.547 62.7432 6.15204 65.845 7.53303C67.1663 8.12132 68.1778 9.11843 68.7971 10.3091C69.0385 10.6354 69.2509 10.9907 69.4291 11.3728L108.077 94.2526C109.512 97.3298 108.18 100.988 105.103 102.423C102.026 103.857 98.368 102.526 96.9331 99.4489L86.5903 77.2686H61.0668C57.6714 77.2686 54.919 74.5161 54.919 71.1208C54.919 67.7255 57.6714 64.9731 61.0668 64.9731H80.8568L63.5372 27.8311L31.7655 99.1915C30.3845 102.293 26.7505 103.688 23.6488 102.307Z" fill="#366213"/>
</svg>
